<mxfile host="app.diagrams.net" modified="2022-12-21T04:10:08.914Z" agent="5.0 (Macintosh)" etag="dGU0IR7H2E7s2nDnPiMe" version="20.1.4" type="github">
  <diagram id="2CiY7Sf4G66lhT_vsnN_" name="Page-1">
    <mxGraphModel dx="839" dy="466" grid="1" gridSize="10" guides="1" tooltips="1" connect="1" arrows="1" fold="1" page="1" pageScale="1" pageWidth="850" pageHeight="1100" math="0" shadow="0">
      <root>
        <mxCell id="0" />
        <mxCell id="1" parent="0" />
        <mxCell id="wGYZzpSj5jo8aP6x9LUJ-1" value="" style="rounded=0;whiteSpace=wrap;html=1;" vertex="1" parent="1">
          <mxGeometry x="190" y="160" width="880" height="550" as="geometry" />
        </mxCell>
        <mxCell id="wGYZzpSj5jo8aP6x9LUJ-3" value="" style="rounded=0;whiteSpace=wrap;html=1;" vertex="1" parent="1">
          <mxGeometry x="670" y="200" width="360" height="470" as="geometry" />
        </mxCell>
        <mxCell id="wGYZzpSj5jo8aP6x9LUJ-2" value="" style="rounded=0;whiteSpace=wrap;html=1;" vertex="1" parent="1">
          <mxGeometry x="240" y="200" width="350" height="470" as="geometry" />
        </mxCell>
        <mxCell id="wGYZzpSj5jo8aP6x9LUJ-4" value="&lt;b&gt;Assessment Scope&lt;br&gt;&lt;/b&gt;" style="text;html=1;strokeColor=none;fillColor=none;align=center;verticalAlign=middle;whiteSpace=wrap;rounded=0;" vertex="1" parent="1">
          <mxGeometry x="270" y="210" width="150" height="30" as="geometry" />
        </mxCell>
        <mxCell id="wGYZzpSj5jo8aP6x9LUJ-5" value="&lt;b&gt;Progress Reports&lt;/b&gt;" style="text;html=1;strokeColor=none;fillColor=none;align=center;verticalAlign=middle;whiteSpace=wrap;rounded=0;" vertex="1" parent="1">
          <mxGeometry x="690" y="210" width="160" height="30" as="geometry" />
        </mxCell>
        <mxCell id="wGYZzpSj5jo8aP6x9LUJ-6" value="&lt;i&gt;&lt;font style=&quot;font-size: 22px;&quot;&gt;Company A Admin&lt;br&gt;&lt;/font&gt;&lt;/i&gt;" style="text;html=1;strokeColor=none;fillColor=none;align=center;verticalAlign=middle;whiteSpace=wrap;rounded=0;" vertex="1" parent="1">
          <mxGeometry x="440" y="50" width="400" height="80" as="geometry" />
        </mxCell>
        <mxCell id="wGYZzpSj5jo8aP6x9LUJ-10" value="&lt;ul style=&quot;font-size: 12px;&quot;&gt;&lt;li&gt;&lt;font style=&quot;font-size: 12px;&quot;&gt;BEE exercise&amp;nbsp; 1&lt;/font&gt;&lt;/li&gt;&lt;/ul&gt;&lt;div&gt;&lt;br&gt;&lt;/div&gt;&lt;ul style=&quot;font-size: 12px;&quot;&gt;&lt;li&gt;&lt;font style=&quot;font-size: 12px;&quot;&gt;BEE exercise&amp;nbsp; 2&lt;/font&gt;&lt;/li&gt;&lt;/ul&gt;&lt;div&gt;&lt;br&gt;&lt;/div&gt;&lt;ul style=&quot;font-size: 12px;&quot;&gt;&lt;li&gt;&lt;font style=&quot;font-size: 12px;&quot;&gt;BEE exercise&amp;nbsp; 3&lt;br&gt;&lt;/font&gt;&lt;/li&gt;&lt;/ul&gt;" style="text;strokeColor=none;fillColor=none;html=1;whiteSpace=wrap;verticalAlign=middle;overflow=hidden;fontSize=22;" vertex="1" parent="1">
          <mxGeometry x="270" y="270" width="310" height="250" as="geometry" />
        </mxCell>
        <mxCell id="wGYZzpSj5jo8aP6x9LUJ-13" value="" style="rounded=1;fillColor=#253858;strokeColor=none;html=1;fontSize=12;" vertex="1" parent="1">
          <mxGeometry x="720" y="260" width="270" height="33" as="geometry" />
        </mxCell>
        <mxCell id="wGYZzpSj5jo8aP6x9LUJ-14" value="" style="shape=triangle;direction=south;fillColor=#ffffff;strokeColor=none;html=1;fontSize=12;" vertex="1" parent="wGYZzpSj5jo8aP6x9LUJ-13">
          <mxGeometry x="1" y="0.5" width="12" height="6" relative="1" as="geometry">
            <mxPoint x="-20" y="-3" as="offset" />
          </mxGeometry>
        </mxCell>
        <mxCell id="wGYZzpSj5jo8aP6x9LUJ-15" value="user/Director1" style="shape=mxgraph.ios7.icons.user;fillColor=#ffffff;strokeColor=#253858;html=1;fontColor=#ffffff;align=left;fontSize=12;spacingLeft=10;labelPosition=right;verticalLabelPosition=middle;verticalAlign=middle;" vertex="1" parent="wGYZzpSj5jo8aP6x9LUJ-13">
          <mxGeometry y="0.5" width="24" height="24" relative="1" as="geometry">
            <mxPoint x="10" y="-12" as="offset" />
          </mxGeometry>
        </mxCell>
        <mxCell id="wGYZzpSj5jo8aP6x9LUJ-39" value="&lt;font style=&quot;font-size: 9px;&quot;&gt;Reminder&lt;/font&gt;" style="rounded=1;fillColor=#0057D8;align=center;strokeColor=none;html=1;fontColor=#ffffff;fontSize=12;sketch=0;" vertex="1" parent="wGYZzpSj5jo8aP6x9LUJ-13">
          <mxGeometry x="180" y="6.5" width="65" height="20" as="geometry" />
        </mxCell>
        <mxCell id="wGYZzpSj5jo8aP6x9LUJ-16" value="" style="rounded=1;fillColor=#ffffff;strokeColor=#DFE1E5;shadow=1;html=1;arcSize=4;fontSize=12;" vertex="1" parent="1">
          <mxGeometry x="720" y="296" width="270" height="111" as="geometry" />
        </mxCell>
        <mxCell id="wGYZzpSj5jo8aP6x9LUJ-17" value="" style="rounded=0;fillColor=#F4F5F7;strokeColor=none;shadow=0;html=1;align=left;fontSize=12;spacingLeft=10;fontColor=#253858;resizeWidth=1" vertex="1" parent="wGYZzpSj5jo8aP6x9LUJ-16">
          <mxGeometry width="270" height="33" relative="1" as="geometry">
            <mxPoint y="6" as="offset" />
          </mxGeometry>
        </mxCell>
        <mxCell id="wGYZzpSj5jo8aP6x9LUJ-30" value="" style="rounded=1;fillColor=#253858;strokeColor=none;html=1;fontSize=12;" vertex="1" parent="1">
          <mxGeometry x="720" y="440" width="270" height="33" as="geometry" />
        </mxCell>
        <mxCell id="wGYZzpSj5jo8aP6x9LUJ-31" value="" style="shape=triangle;direction=south;fillColor=#ffffff;strokeColor=none;html=1;fontSize=12;" vertex="1" parent="wGYZzpSj5jo8aP6x9LUJ-30">
          <mxGeometry x="1" y="0.5" width="12" height="6" relative="1" as="geometry">
            <mxPoint x="-20" y="-3" as="offset" />
          </mxGeometry>
        </mxCell>
        <mxCell id="wGYZzpSj5jo8aP6x9LUJ-32" value="user/Director2" style="shape=mxgraph.ios7.icons.user;fillColor=#ffffff;strokeColor=#253858;html=1;fontColor=#ffffff;align=left;fontSize=12;spacingLeft=10;labelPosition=right;verticalLabelPosition=middle;verticalAlign=middle;" vertex="1" parent="wGYZzpSj5jo8aP6x9LUJ-30">
          <mxGeometry y="0.5" width="24" height="24" relative="1" as="geometry">
            <mxPoint x="10" y="-12" as="offset" />
          </mxGeometry>
        </mxCell>
        <mxCell id="wGYZzpSj5jo8aP6x9LUJ-47" value="&lt;font style=&quot;font-size: 9px;&quot;&gt;Reminder&lt;/font&gt;" style="rounded=1;fillColor=#0057D8;align=center;strokeColor=none;html=1;fontColor=#ffffff;fontSize=12;sketch=0;" vertex="1" parent="wGYZzpSj5jo8aP6x9LUJ-30">
          <mxGeometry x="180" y="6.5" width="65" height="20" as="geometry" />
        </mxCell>
        <mxCell id="wGYZzpSj5jo8aP6x9LUJ-33" value="" style="rounded=1;fillColor=#253858;strokeColor=none;html=1;fontSize=12;" vertex="1" parent="1">
          <mxGeometry x="720" y="500" width="270" height="33" as="geometry" />
        </mxCell>
        <mxCell id="wGYZzpSj5jo8aP6x9LUJ-34" value="" style="shape=triangle;direction=south;fillColor=#ffffff;strokeColor=none;html=1;fontSize=12;" vertex="1" parent="wGYZzpSj5jo8aP6x9LUJ-33">
          <mxGeometry x="1" y="0.5" width="12" height="6" relative="1" as="geometry">
            <mxPoint x="-20" y="-3" as="offset" />
          </mxGeometry>
        </mxCell>
        <mxCell id="wGYZzpSj5jo8aP6x9LUJ-35" value="user/Director2" style="shape=mxgraph.ios7.icons.user;fillColor=#ffffff;strokeColor=#253858;html=1;fontColor=#ffffff;align=left;fontSize=12;spacingLeft=10;labelPosition=right;verticalLabelPosition=middle;verticalAlign=middle;" vertex="1" parent="wGYZzpSj5jo8aP6x9LUJ-33">
          <mxGeometry y="0.5" width="24" height="24" relative="1" as="geometry">
            <mxPoint x="10" y="-12" as="offset" />
          </mxGeometry>
        </mxCell>
        <mxCell id="wGYZzpSj5jo8aP6x9LUJ-48" value="&lt;font style=&quot;font-size: 9px;&quot;&gt;Reminder&lt;/font&gt;" style="rounded=1;fillColor=#0057D8;align=center;strokeColor=none;html=1;fontColor=#ffffff;fontSize=12;sketch=0;" vertex="1" parent="wGYZzpSj5jo8aP6x9LUJ-33">
          <mxGeometry x="180" y="6.5" width="65" height="20" as="geometry" />
        </mxCell>
      </root>
    </mxGraphModel>
  </diagram>
</mxfile>
